# xmcd
#
# Track frame offsets:
#	150
#	19322
#	38525
#	59855
#	80690
#	92792
#	109685
#	127325
#	142007
#	157922
#	171592
#	187316
#
# Disc length: 2684 seconds
#
# Revision: 0
# Processed by: cddbd v1.5.1PL0 Copyright (c) Steve Scherf et al.
# Submitted via: audiograbber 1.83.01
#
DISCID=b50a7a0c
DTITLE=The Chargers - Get charged
DYEAR=2000
DGENRE=Old Blues
TTITLE0=I wanna kiss that thing
TTITLE1=Stuck in the middle
TTITLE2=Get charged
TTITLE3=I don't mean a thing to me
TTITLE4=Cowboy aliens
TTITLE5=The girls game
TTITLE6=Living two lives
TTITLE7=Some call it bad luck
TTITLE8=That's when I feel happy
TTITLE9=Blue harp
TTITLE10=Shy guy
TTITLE11=Facts of life
EXTD=The first Album
EXTT0=Martin Bohl, Jan Mohr, Henning Kiehn, Frank Peters
EXTT1=
EXTT2=
EXTT3=
EXTT4=
EXTT5=
EXTT6=
EXTT7=
EXTT8=
EXTT9=
EXTT10=
EXTT11=
PLAYORDER=
